HIERARCHY
ROOT Hips
{
 OFFSET 0.000000 0.000000 0.000000
 CHANNELS 6 Xposition Yposition Zposition Yrotation Xrotation Zrotation
 JOINT Chest
 {
  OFFSET 0.000000 9.585900 0.002600
  CHANNELS 3 Yrotation Xrotation Zrotation
  JOINT Chest2
  {
   OFFSET 0.000000 9.601200 -0.005300
   CHANNELS 3 Yrotation Xrotation Zrotation
   JOINT Chest3
   {
    OFFSET 0.000000 9.561800 0.000000
    CHANNELS 3 Yrotation Xrotation Zrotation
    JOINT Chest4
    {
     OFFSET 0.000000 9.552100 0.000000
     CHANNELS 3 Yrotation Xrotation Zrotation
     JOINT Neck
     {
      OFFSET 0.000000 14.453000 0.000000
      CHANNELS 3 Yrotation Xrotation Zrotation
      JOINT Head
      {
       OFFSET 0.000000 8.936500 -0.011300
       CHANNELS 3 Yrotation Xrotation Zrotation
       End Site
       {
        OFFSET 0.000000 17.073600 -0.006000
       }
      }
     }
     JOINT RightCollar
     {
      OFFSET -2.921100 9.558500 0.000000
      CHANNELS 3 Yrotation Xrotation Zrotation
      JOINT RightShoulder
      {
       OFFSET -13.519700 0.000000 0.000000
       CHANNELS 3 Yrotation Xrotation Zrotation
       JOINT RightElbow
       {
        OFFSET 0.000000 -29.696600 0.000000
        CHANNELS 3 Yrotation Xrotation Zrotation
        JOINT RightWrist
        {
         OFFSET 0.000000 -24.004700 0.000000
         CHANNELS 3 Yrotation Xrotation Zrotation
         End Site
         {
          OFFSET 0.000000 -17.728500 0.000000
         }
        }
       }
      }
     }
     JOINT LeftCollar
     {
      OFFSET 2.921100 9.558500 0.000000
      CHANNELS 3 Yrotation Xrotation Zrotation
      JOINT LeftShoulder
      {
       OFFSET 13.519700 0.000000 0.000000
       CHANNELS 3 Yrotation Xrotation Zrotation
       JOINT LeftElbow
       {
        OFFSET 0.000000 -29.696600 0.000000
        CHANNELS 3 Yrotation Xrotation Zrotation
        JOINT LeftWrist
        {
         OFFSET 0.000000 -24.004700 0.000000
         CHANNELS 3 Yrotation Xrotation Zrotation
         End Site
         {
          OFFSET 0.000000 -17.728500 0.000000
         }
        }
       }
      }
     }
    }
   }
  }
 }
 JOINT RightHip
 {
  OFFSET -7.771700 -0.012900 -0.001300
  CHANNELS 3 Yrotation Xrotation Zrotation
  JOINT RightKnee
  {
   OFFSET 0.000000 -40.869800 0.001200
   CHANNELS 3 Yrotation Xrotation Zrotation
   JOINT RightAnkle
   {
    OFFSET 0.000000 -39.717900 0.002100
    CHANNELS 3 Yrotation Xrotation Zrotation
    JOINT RightToe
    {
     OFFSET 0.000000 -4.965400 11.033500
     CHANNELS 3 Yrotation Xrotation Zrotation
     End Site
     {
      OFFSET 0.000000 -1.423100 5.872300
     }
    }
   }
  }
 }
 JOINT LeftHip
 {
  OFFSET 7.771700 -0.012900 -0.001300
  CHANNELS 3 Yrotation Xrotation Zrotation
  JOINT LeftKnee
  {
   OFFSET 0.000000 -40.869800 0.001200
   CHANNELS 3 Yrotation Xrotation Zrotation
   JOINT LeftAnkle
   {
    OFFSET 0.000000 -39.717900 0.002100
    CHANNELS 3 Yrotation Xrotation Zrotation
    JOINT LeftToe
    {
     OFFSET 0.000000 -4.965400 11.033500
     CHANNELS 3 Yrotation Xrotation Zrotation
     End Site
     {
      OFFSET 0.000000 -1.423100 5.872300
     }
    }
   }
  }
 }
}
MOTION
Frames: 5
Frame Time: 0.008333
-22.456936 60.837547 31.839095 165.940697 -34.902920 3.521762 -1.607228 20.866768 0.081498 -0.189741 2.742765 0.110934 -0.298621 4.491991 0.182826 -1.212826 17.825112 0.520220 -0.759942 15.145572 1.595749 -1.153246 -9.827717 1.836735 5.585446 5.808995 -5.169363 5.036519 -25.074466 -18.579704 -126.149930 -74.922681 143.504734 -0.139974 -1.717790 -22.575686 -11.067620 3.042277 -3.284538 13.262937 -15.202064 3.450635 -177.852112 -70.466385 159.254877 -9.567999 3.485224 -1.410899 -2.936204 -35.107728 -0.744446 -21.931515 65.959940 -20.885627 -0.606698 -0.741184 -1.893375 -0.153470 -0.406061 -0.091649 8.215202 -32.553538 -1.466547 32.508646 67.505989 32.204350 -16.413734 -12.921198 -0.977239 0.596617 0.452157 0.277257
-22.466076 60.848057 31.875516 165.940242 -35.014389 3.522319 -1.624272 20.894127 0.057132 -0.193104 2.733829 0.105576 -0.313197 4.466164 0.167906 -1.190429 17.927175 0.543032 -0.596083 15.389684 1.715036 -0.994131 -9.545342 1.922988 5.619105 5.688206 -5.210962 5.184050 -25.559175 -19.004763 -129.294366 -74.951904 146.541753 0.013895 -1.803399 -22.525032 -11.186775 2.979848 -3.139778 13.284860 -15.430551 3.615154 -178.717271 -70.339353 160.056635 -9.270382 3.397210 -0.634137 -2.952125 -34.978255 -0.762814 -21.866714 65.893767 -20.798558 -0.613184 -0.693683 -1.917392 -0.128139 -0.404713 -0.093562 8.194238 -32.441037 -1.433601 32.446974 67.449538 32.133855 -16.523905 -12.856575 -0.975483 0.535505 0.422798 0.266804
-22.473898 60.856943 31.911368 165.932367 -35.118536 3.513344 -1.634090 20.912193 0.051687 -0.195408 2.740399 0.105933 -0.316881 4.476347 0.168368 -1.183042 17.975518 0.542368 -0.456308 15.629375 1.810964 -0.850709 -9.258930 1.982203 5.667530 5.573613 -5.240873 5.320160 -26.007359 -19.415566 -132.423642 -74.933712 149.539972 0.148382 -1.883635 -22.545830 -11.298627 2.921886 -2.989798 13.298634 -15.641534 3.805893 -179.526730 -70.225321 160.822370 -8.988220 3.343935 0.153066 -2.962479 -34.864229 -0.761012 -21.838583 65.835723 -20.742285 -0.637101 -0.632735 -1.946412 -0.094529 -0.426900 -0.082964 8.173377 -32.339003 -1.392257 32.398612 67.396477 32.072695 -16.560919 -12.789045 -0.976929 0.501909 0.395295 0.256398
-22.480009 60.865634 31.944485 165.934764 -35.233133 3.485998 -1.654021 20.938342 0.063978 -0.190651 2.767014 0.105868 -0.313972 4.502135 0.169161 -1.207366 17.959197 0.535594 -0.323777 15.883462 1.881615 -0.725538 -8.981071 2.015903 5.745547 5.497923 -5.264874 5.455053 -26.425730 -19.813821 -135.502532 -74.874856 152.455984 0.264071 -1.954988 -22.639754 -11.383292 2.896648 -2.848452 13.304851 -15.841773 4.019372 179.782590 -70.119606 161.507005 -8.723734 3.323546 0.942292 -3.003520 -34.725900 -0.753909 -21.753675 65.774375 -20.629612 -0.644680 -0.600811 -1.953417 -0.084954 -0.427438 -0.091022 8.135027 -32.229366 -1.339647 32.362991 67.344604 32.019890 -16.524904 -12.719385 -0.986940 0.525814 0.364984 0.256289
-22.488249 60.874923 31.973158 165.954044 -35.365739 3.461676 -1.702654 20.979746 0.065770 -0.169287 2.836148 0.102729 -0.347116 4.426359 0.175253 -1.213409 17.992654 0.526330 -0.213007 16.127818 1.923341 -0.618202 -8.719359 2.024419 5.825219 5.440844 -5.291737 5.607969 -26.813382 -20.204233 -138.509652 -74.782199 155.253307 0.366622 -2.015117 -22.802825 -11.454834 2.884896 -2.722553 13.306179 -16.036127 4.252638 179.246243 -70.012834 162.084102 -8.478979 3.331348 1.722378 -3.057331 -34.562159 -0.778104 -21.614897 65.722884 -20.467252 -0.613762 -0.600449 -1.956859 -0.101456 -0.393744 -0.117384 8.081930 -32.104185 -1.298492 32.343090 67.294846 31.979287 -16.485814 -12.632537 -0.995714 0.532281 0.325035 0.253826
